<svg xmlns="http://www.w3.org/2000/svg" xmlns:xlink="http://www.w3.org/1999/xlink" width="44" height="36" viewBox="0 0 44 36"><defs><path id="6gi9a" d="M844.07 1068.49a.72.72 0 0 1-.17.43l-19.32 21.83c-.02.02-.05.02-.06.04l-.16.11c-.01.01-.01.04-.03.04a.75.75 0 0 1-.58 0c-.02 0-.03-.03-.04-.03l-.16-.12c-.01-.02-.04-.02-.06-.04l-19.32-21.83a.71.71 0 0 1-.16-.43l-.02-.04c0-.04.03-.05.03-.08.01-.07 0-.14.03-.2l4.12-9.7a.73.73 0 0 1 .67-.44h30.4c.29 0 .55.17.67.44l4.12 9.7c.02.06.01.13.02.2 0 .03.03.04.03.08l-.01.04zm-24.96-9.02l-3.55 8.26h16.96l-3.56-8.26zm-3.54 9.7l8.46 19.3 8.48-19.3zm-9.25 0l15.2 17.17-7.54-17.17zm20.24 17.17l15.2-17.17h-7.67zm12.2-26.87h-8.22l3.55 8.26h8.18zm-32.95 8.26h8.17l3.56-8.26h-8.22z"/><linearGradient id="6gi9b" x1="807.99" x2="840.08" y1="1058.03" y2="1091" gradientUnits="userSpaceOnUse"><stop offset="0" stop-color="#fff"/><stop offset="1" stop-color="#fff"/></linearGradient></defs><g><g transform="translate(-802 -1057)"><use fill="url(#6gi9b)" xlink:href="#6gi9a"/><use fill="#ff3b4a" xlink:href="#6gi9a"/></g></g></svg>