<svg xmlns="http://www.w3.org/2000/svg" xmlns:xlink="http://www.w3.org/1999/xlink" width="42" height="40" viewBox="0 0 42 40"><defs><path id="bx90a" d="M1165.48 809.98L1148 825.94l-2.07 1.88-.11.1a.86.86 0 0 1-.23.1l-12.65 3.58-5.38 1.52a.83.83 0 0 1-1.01-1.1l2-5.21 4.7-12.21c.02-.02.03-.05.03-.07a.86.86 0 0 1 .27-.35l2.01-1.84 17.5-15.96a.83.83 0 0 1 .92-.14 23.15 23.15 0 0 1 11.72 12.83c.12.31.03.68-.22.9zm-36.77 21.08l2.87-.81-.04-.12c-.2-.37-.41-.72-.69-1.03a4.5 4.5 0 0 0-.96-.77l-.11-.06zm17.54-5.8l-9.11-9.97-1.06-1.15-1.31 1.19-4.37 11.35c.06.03.1.1.18.14.56.32 1.08.7 1.5 1.16.43.46.76 1.02 1.03 1.6.03.07.09.13.12.2l11.72-3.32zm17.68-16.13a21.46 21.46 0 0 0-10.17-11.14l-16.45 15.02 2.64 2.89 13.9-12.69a.84.84 0 0 1 1.18.05.84.84 0 0 1-.05 1.19l-13.9 12.68 2.09 2.28.54.6 13.9-12.68a.84.84 0 0 1 1.13 1.23l-13.9 12.69 2.64 2.9z"/><linearGradient id="bx90b" x1="1127.49" x2="1164.75" y1="796.16" y2="833.16" gradientUnits="userSpaceOnUse"><stop offset="0" stop-color="#fff"/><stop offset="1" stop-color="#fff"/></linearGradient></defs><g><g transform="translate(-1125 -795)"><use fill="url(#bx90b)" xlink:href="#bx90a"/><use fill="#ff3b4a" xlink:href="#bx90a"/></g></g></svg>