<svg xmlns="http://www.w3.org/2000/svg" xmlns:xlink="http://www.w3.org/1999/xlink" width="43" height="44" viewBox="0 0 43 44"><defs><path id="yxswa" d="M825.71 821.66a5.56 5.56 0 0 1 0-11.13 5.56 5.56 0 0 1 0 11.13zm0-9.69a4.12 4.12 0 0 0 0 8.24 4.12 4.12 0 0 0 0-8.24zm-3.11 23.67l-1.24-4.96c-.96-.3-1.91-.7-2.83-1.2l-4.4 2.65a.72.72 0 0 1-.88-.11l-3.42-3.43a.72.72 0 0 1-.1-.88l2.64-4.4c-.5-.92-.89-1.87-1.18-2.85l-4.98-1.24a.72.72 0 0 1-.54-.7v-4.85c0-.33.22-.62.54-.7l4.95-1.23c.3-.98.7-1.93 1.2-2.85l-2.64-4.41a.73.73 0 0 1 .1-.88l3.42-3.43c.24-.23.6-.28.88-.1l4.4 2.64c.9-.49 1.86-.88 2.83-1.18l1.24-4.99a.72.72 0 0 1 .7-.54h4.83c.33 0 .62.22.7.54l1.23 4.97c.98.3 1.93.7 2.83 1.2l4.41-2.65a.74.74 0 0 1 .88.1l3.41 3.43c.24.23.28.6.11.88l-2.64 4.42c.48.9.88 1.86 1.17 2.83l4.98 1.25c.32.08.55.37.55.7v4.84c0 .33-.23.62-.55.7l-4.98 1.25c-.3.98-.69 1.93-1.17 2.83l2.65 4.41c.17.29.12.65-.11.89l-3.42 3.43a.73.73 0 0 1-.87.1l-4.41-2.65c-.9.5-1.86.9-2.83 1.2l-1.24 4.97a.72.72 0 0 1-.7.55h-4.83a.72.72 0 0 1-.7-.55zm-4.09-7.72c.13 0 .25.03.36.1 1.06.6 2.16 1.08 3.28 1.39.25.07.44.27.5.52l1.2 4.82h3.71l1.2-4.82a.72.72 0 0 1 .5-.52c1.14-.32 2.24-.79 3.28-1.4.23-.13.5-.12.73.01l4.28 2.58 2.62-2.64-2.57-4.28a.73.73 0 0 1 0-.74c.59-1.03 1.04-2.12 1.35-3.27a.72.72 0 0 1 .52-.5l4.84-1.22v-3.72l-4.84-1.21a.71.71 0 0 1-.52-.51 13.9 13.9 0 0 0-1.35-3.28.73.73 0 0 1 0-.73l2.57-4.29-2.62-2.62-4.28 2.57a.7.7 0 0 1-.73 0 14.4 14.4 0 0 0-3.28-1.38.71.71 0 0 1-.5-.52l-1.2-4.82h-3.7l-1.22 4.85a.72.72 0 0 1-.5.52c-1.14.3-2.24.76-3.27 1.36a.7.7 0 0 1-.73 0l-4.28-2.58-2.62 2.63 2.57 4.28c.13.23.13.51 0 .74a14.47 14.47 0 0 0-1.38 3.29.72.72 0 0 1-.52.5l-4.8 1.2v3.72l4.83 1.22c.25.06.45.26.52.5.3 1.14.76 2.25 1.36 3.28.13.23.13.51 0 .74l-2.57 4.28 2.62 2.63 4.27-2.57c.12-.07.25-.1.37-.1z"/><linearGradient id="yxswb" x1="805.67" x2="845.67" y1="796.19" y2="836" gradientUnits="userSpaceOnUse"><stop offset="0" stop-color="#fff"/><stop offset="1" stop-color="#fff"/></linearGradient></defs><g><g transform="translate(-804 -794)"><use fill="url(#yxswb)" xlink:href="#yxswa"/><use fill="#ff3b4a" xlink:href="#yxswa"/></g></g></svg>