<svg xmlns="http://www.w3.org/2000/svg" xmlns:xlink="http://www.w3.org/1999/xlink" width="46" height="36" viewBox="0 0 46 36"><defs><path id="3ghna" d="M1168 1073.54c0 .03-.04.05-.05.09v10.34c0 .43-.35.78-.79.78h-2.63a.78.78 0 0 1-.8-.78c0-.43.36-.78.8-.78h1.85v-8.87h-7.13a.78.78 0 0 1-.79-.78v-9.72h-6.34v14.32c0 .43-.35.78-.78.78a.79.79 0 0 1-.8-.78v-19.59h-24.96v24.64h1.88c.44 0 .8.35.8.78 0 .43-.36.78-.8.78h-2.66a.79.79 0 0 1-.8-.78v-26.2c0-.43.36-.77.8-.77h26.54c.43 0 .78.34.78.77v4.5h15.04c.44 0 .8.34.8.77v10.4c0 .04.03.06.03.1zm-1.62-9.72h-6.34v8.94h6.34zm-3.7 20.15a6.06 6.06 0 0 1-6.08 6.02c-3.36 0-6.1-2.7-6.1-6.02a6.06 6.06 0 0 1 6.1-6.02c3.35 0 6.08 2.7 6.08 6.02zm-1.57 0a4.49 4.49 0 0 0-4.5-4.46 4.5 4.5 0 0 0-4.52 4.46 4.5 4.5 0 0 0 4.51 4.46c2.48 0 4.5-2 4.5-4.46zm-19.62 0a6.06 6.06 0 0 1-6.1 6.02 6.06 6.06 0 0 1-6.08-6.02 6.06 6.06 0 0 1 6.09-6.02c3.35 0 6.09 2.7 6.09 6.02zm-1.58 0a4.49 4.49 0 0 0-4.51-4.46c-2.5 0-4.52 2-4.52 4.46a4.5 4.5 0 0 0 4.52 4.46c2.48 0 4.5-2 4.5-4.46zm9.54 0c0 .43-.35.78-.78.78h-5.34a.78.78 0 0 1-.79-.78c0-.43.35-.78.79-.78h5.34c.43 0 .78.35.78.78z"/><linearGradient id="3ghnb" x1="1129.01" x2="1162.99" y1="1057" y2="1089.99" gradientUnits="userSpaceOnUse"><stop offset="0" stop-color="#fff"/><stop offset="1" stop-color="#fff"/></linearGradient></defs><g><g transform="translate(-1123 -1055)"><use fill="url(#3ghnb)" xlink:href="#3ghna"/><use fill="#ff3b4a" xlink:href="#3ghna"/></g></g></svg>